C:\OpenCap\opencap-processing\Data\7866dab3-7210-45d6-b98e-60491a15613b\OpenSimData\Dynamics\TRJave75\GRF_resultant_TRJave75_0.mot
version=1
nRows=12
nColumns=19
inDegrees=yes
endheader 
time	ground_force_right_vx	ground_force_right_vy	ground_force_right_vz	ground_force_right_px	ground_force_right_py	ground_force_right_pz	ground_torque_right_x	ground_torque_right_y	ground_torque_right_z	ground_force_left_vx	ground_force_left_vy	ground_force_left_vz	ground_force_left_px	ground_force_left_py	ground_force_left_pz	ground_torque_left_x	ground_torque_left_y	ground_torque_left_z	
          5.20000000	         -0.00000000	          0.00000000	         -0.00000000	          0.00000000	          0.00000000	          0.00000000	          0.00000000	          0.00000000	          0.00000000	       -774.92975104	       1379.42261924	        247.40470068	         -2.15660184	          0.00000000	         -0.03651574	          0.00000000	         13.33403629	          0.00000000	
          5.21000000	         -0.00000000	          0.00000000	         -0.00000000	          0.00000000	          0.00000000	          0.00000000	          0.00000000	          0.00000000	          0.00000000	       -861.26832895	       1652.63570338	        232.26739580	         -2.16096589	          0.00000000	         -0.03841110	          0.00000000	          2.80113031	          0.00000000	
          5.22000000	         -0.00000000	          0.00000000	          0.00000000	          0.00000000	          0.00000000	          0.00000000	          0.00000000	          0.00000000	          0.00000000	       -813.62716543	       1662.14105262	        201.18886956	         -2.16281243	          0.00000000	         -0.03994211	          0.00000000	          4.46621909	          0.00000000	
          5.23000000	          0.00000000	          0.00000000	          0.00000000	         -2.91444531	          0.00000000	          0.54815150	          0.00000000	          0.00000000	          0.00000000	       -700.91865350	       1519.81616224	        171.39274018	         -2.16276386	          0.00000000	         -0.04091400	          0.00000000	          9.20077604	          0.00000000	
          5.24000000	          0.00000000	          0.00000000	          0.00000000	         -2.90949090	          0.00000000	          0.54543519	          0.00000000	          0.00000000	          0.00000000	       -629.36215741	       1376.10165587	        130.39989778	         -2.16427209	          0.00000000	         -0.04245496	          0.00000000	          7.67717605	          0.00000000	
          5.25000000	          0.00000190	          0.00000162	          0.00000155	         -2.90342170	          0.00000000	          0.53743419	          0.00000000	         -0.00000000	          0.00000000	       -565.92524774	       1248.59827436	         99.00649045	         -2.16679369	          0.00000000	         -0.04428176	          0.00000000	          4.90060053	          0.00000000	
          5.26000000	          0.00052230	          0.00056979	          0.00069578	         -2.89938214	          0.00000000	          0.53125617	          0.00000000	          0.00000000	          0.00000000	       -525.08998030	       1154.62407207	         86.52844978	         -2.17024781	          0.00000000	         -0.04644290	          0.00000000	          2.64017174	          0.00000000	
          5.27000000	          0.05741376	          0.08187130	          0.11536170	         -2.89726918	          0.00000000	          0.52530674	          0.00000000	          0.00000000	          0.00000000	       -431.36462490	       1070.04912856	         96.60860245	         -2.17557182	          0.00000000	         -0.04968915	          0.00000000	         -3.57278335	          0.00000000	
          5.28000000	          1.18178644	          2.53882481	          3.91558797	         -2.89611441	          0.00000000	          0.51790059	          0.00000000	          0.00000000	          0.00000000	       -349.17779642	       1017.25429599	        118.05371904	         -2.17919356	          0.00000000	         -0.05241338	          0.00000000	         -9.14062945	          0.00000000	
          5.29000000	          2.58196881	          9.96536264	         16.01687440	         -2.89549600	          0.00000000	          0.50807858	          0.00000000	          0.00000000	          0.00000000	       -292.45196227	        890.33769816	        127.54066036	         -2.18154402	          0.00000000	         -0.05462511	          0.00000000	        -10.74291842	          0.00000000	
          5.30000000	          0.81142797	         14.17575118	         22.61347825	         -2.89445246	          0.00000000	          0.49620213	          0.00000000	         -0.00000000	          0.00000000	       -263.71873632	        842.94573064	        144.45752846	         -2.18019388	          0.00000000	         -0.05562499	          0.00000000	        -11.80774735	          0.00000000	
          5.31000000	         -3.31486592	         15.87025162	         25.31817945	         -2.89208893	          0.00000000	          0.48329063	          0.00000000	          0.00000000	          0.00000000	       -250.96971123	        816.29486521	        156.70129902	         -2.17862052	          0.00000000	         -0.05706435	          0.00000000	        -15.27648530	          0.00000000	
